# xmcd
#
# Track frame offsets:
# 150
# 18219
# 43845
# 62257
# 97662
# 118563
# 138795
# 157349
# 173559
# 190455
# 214245
# 232479
#
# Disc length: 3285 seconds
#
# Revision: 1
# Processed by: cddbd v1.5.1PL0 Copyright (c) Steve Scherf et al.
# Submitted via: Easy CD Ripper v2.31
#
DISCID=a10cd30c
DTITLE=Ben Harper - Burn to Shine
DYEAR=1999
DGENRE=Blues
TTITLE0=Alone
TTITLE1=The Woman in You
TTITLE2=Less
TTITLE3=Two Hands of a Prayer
TTITLE4=Please Bleed
TTITLE5=Suzie Blue
TTITLE6=Steal my Kisses
TTITLE7=Burn to Shine
TTITLE8=Show me a Little Shame
TTITLE9=Forgiven
TTITLE10=Beloved One
TTITLE11=In the Lord's Arms
EXTD=
EXTT0=
EXTT1=
EXTT2=
EXTT3=
EXTT4=
EXTT5=
EXTT6=
EXTT7=
EXTT8=
EXTT9=
EXTT10=
EXTT11=
PLAYORDER=
